<svg xmlns="http://www.w3.org/2000/svg" xmlns:xlink="http://www.w3.org/1999/xlink" id="Layer_1" x="0px" y="0px" viewBox="0 0 105.3 105.3" style="enable-background:new 0 0 105.3 105.3;" xml:space="preserve">
<style type="text/css">
	.st0{fill:#FFFFFF;stroke:#000000;stroke-width:0.6739;stroke-miterlimit:10;}
	.st1{fill:#FAFAFA;}
	.st2{fill:#FFFFFF;}
	.st3{fill:#2B2B2B;}
	.st4{fill:#EFEEEE;}
	.st5{fill:#FFFFFF;stroke:#000000;stroke-width:0.5;stroke-miterlimit:10;}
	.st6{fill:#FFFFFF;stroke:#231F20;stroke-width:0.25;stroke-miterlimit:10;}
	.st7{opacity:0.5;fill:url(#SVGID_7_);}
	.st8{fill:#EA1E30;}
	.st9{fill:#83161C;}
	.st10{fill:#1D1655;}
	.st11{fill:none;stroke:#231F20;stroke-width:0.5;stroke-miterlimit:10;}
	.st12{fill:#FFFFFF;stroke:#231F20;stroke-width:0.9494;stroke-miterlimit:10;}
	.st13{opacity:0.5;fill:url(#SVGID_10_);}
	.st14{fill:#FFFFFF;stroke:#221F1F;stroke-width:0.5;stroke-miterlimit:10;}
	.st15{fill:none;stroke:#EA1E30;stroke-width:4.3871;stroke-miterlimit:10;}
	.st16{fill:none;stroke:#FFFFFF;stroke-miterlimit:10;}
	.st17{fill:none;stroke:#EA1E30;stroke-miterlimit:10;}
	.st18{opacity:0.24;}
	.st19{opacity:0.2;clip-path:url(#SVGID_16_);fill:#2D241D;}
	.st20{fill:none;stroke:#EA1E30;stroke-width:3.8974;stroke-miterlimit:10;}
	.st21{fill:none;stroke:#FFFFFF;stroke-width:0.8884;stroke-miterlimit:10;}
	.st22{fill:#303187;}
	.st23{fill:none;stroke:#FFFFFF;stroke-width:1.0246;stroke-miterlimit:10;}
	.st24{opacity:0.3;fill:#FFFFFF;}
	.st25{fill:none;stroke:#FFFFFF;stroke-width:1.0901;stroke-miterlimit:10;}
	.st26{fill:#FFFFFF;stroke:#231F20;stroke-width:0.9877;stroke-miterlimit:10;}
	.st27{opacity:0.2;clip-path:url(#SVGID_20_);fill:#2D241D;}
	.st28{opacity:0.1;}
	.st29{clip-path:url(#SVGID_24_);}
	.st30{fill:#EC1B2E;}
	.st31{fill:none;stroke:#A6111F;stroke-width:1.5548;stroke-linejoin:round;stroke-miterlimit:10;}
	.st32{fill:none;stroke:#5D5D5D;stroke-miterlimit:10;}
	.st33{opacity:0.35;}
	.st34{fill:#D5D5D5;}
	.st35{fill:none;stroke:#EC1B2E;stroke-miterlimit:10;}
	.st36{fill:url(#SVGID_31_);}
	.st37{opacity:0.4;fill:url(#SVGID_32_);}
	.st38{fill:#919296;}
	.st39{fill:url(#SVGID_33_);}
	.st40{opacity:0.4;fill:url(#SVGID_34_);}
	.st41{opacity:0.4;fill:url(#SVGID_35_);}
	.st42{fill:#F2F2F2;}
	.st43{fill:none;stroke:#FFFFFF;stroke-width:1.3023;stroke-miterlimit:10;}
	.st44{fill:#A9A9A9;}
	.st45{fill:none;stroke:#A9A9A9;stroke-miterlimit:10;}
	.st46{fill:#D9D9D9;}
	.st47{fill:none;stroke:#000000;stroke-width:1.3023;stroke-miterlimit:10;}
	.st48{fill:#C2C2C2;}
	.st49{fill:none;stroke:#B3B3B3;stroke-miterlimit:10;}
	.st50{opacity:0.15;}
	.st51{fill:#F4F4F4;}
	.st52{fill:#E6E6E6;}
	.st53{fill:none;}
	.st54{fill:none;stroke:#FFFFFF;stroke-width:2;stroke-miterlimit:10;}
	.st55{fill:#FFFFFF;stroke:#A9A9A9;stroke-miterlimit:10;}
	.st56{clip-path:url(#SVGID_51_);}
	.st57{fill:none;stroke:#D9D9D9;stroke-width:1.0402;stroke-linejoin:round;stroke-miterlimit:10;}
	.st58{fill:#F1F1F1;}
	.st59{fill:#EBECEE;}
	.st60{fill:#434655;}
	.st61{clip-path:url(#SVGID_53_);}
	.st62{clip-path:url(#SVGID_55_);}
	.st63{fill:#E82031;stroke:#EC1B2E;stroke-width:2.4045;stroke-linejoin:round;stroke-miterlimit:10;}
	.st64{clip-path:url(#SVGID_55_);fill:#E82031;stroke:#EC1B2E;stroke-width:2.4045;stroke-linejoin:round;stroke-miterlimit:10;}
	.st65{fill:#FFFFFF;stroke:#EC1B2E;stroke-width:2.4045;stroke-linejoin:round;stroke-miterlimit:10;}
	.st66{clip-path:url(#SVGID_55_);fill:#FFFFFF;stroke:#EC1B2E;stroke-width:2.4045;stroke-linejoin:round;stroke-miterlimit:10;}
	.st67{fill:none;stroke:#EC1B2E;stroke-width:2.4045;stroke-linejoin:round;stroke-miterlimit:10;}
	.st68{clip-path:url(#SVGID_55_);fill:none;stroke:#EC1B2E;stroke-width:2.4045;stroke-linejoin:round;stroke-miterlimit:10;}
	.st69{clip-path:url(#SVGID_55_);fill:none;stroke:#EC1B2E;stroke-width:2.404;stroke-linejoin:round;stroke-miterlimit:10;}
	.st70{clip-path:url(#SVGID_57_);}
	.st71{fill:#840F1A;}
	.st72{fill:#929497;}
	.st73{fill:none;stroke:#231F20;stroke-width:1.0556;stroke-linecap:round;stroke-linejoin:round;stroke-miterlimit:10;}
	.st74{clip-path:url(#SVGID_59_);}
	.st75{fill:#424554;}
	.st76{clip-path:url(#SVGID_61_);}
	.st77{fill:#EC1D30;}
</style>
<g>
	<g>
		<defs>
			<rect id="SVGID_23_" x="324.6" y="-764.4" width="1920" height="545.5"></rect>
		</defs>
		<clipPath id="SVGID_2_">
			<use xlink:href="#SVGID_23_" style="overflow:visible;"></use>
		</clipPath>
		<g style="clip-path:url(#SVGID_2_);">
			<g>
				<g>
					<g>
						<g>
							<g>
							</g>
						</g>
						<g>
							<g>
								<polygon class="st31" points="176.6,-5.5 132.2,20.1 87.9,-5.5 43.6,20.1 -0.7,-5.5 43.6,-31.1 87.9,-56.6 132.2,-31.1                   "></polygon>
							</g>
							<g>
								<polygon class="st31" points="43.6,20.1 43.6,71.3 -0.7,45.7 -45.1,20.1 -45.1,-82.2 -0.7,-56.6 -0.7,-5.5         "></polygon>
							</g>
						</g>
						<g>
							<g>
								<polyline class="st31" points="-45.1,122.5 -89.4,96.9 -89.4,45.7 -45.1,71.3 -0.7,96.9 -0.7,122.5         "></polyline>
							</g>
							<g>
								<polygon class="st31" points="43.6,71.3 43.6,71.3 43.6,71.3         "></polygon>
								<polyline class="st31" points="-0.7,122.5 -0.7,96.9 43.6,71.3 43.6,122.5         "></polyline>
							</g>
							<g>
								<polygon class="st31" points="87.9,-5.5 87.9,96.9 43.6,122.5 43.6,20.1         "></polygon>
								<polygon class="st31" points="87.9,45.7 87.9,45.7 87.9,45.7         "></polygon>
								<polygon class="st31" points="132.2,20.1 132.2,122.5 87.9,96.9 87.9,-5.5         "></polygon>
							</g>
							<g>
								<polygon class="st31" points="-0.7,45.7 -0.7,45.7 -0.7,45.7         "></polygon>
								<polygon class="st31" points="43.6,71.3 -0.7,96.9 -45.1,71.3 -89.4,45.7 -45.1,20.1 -0.7,45.7         "></polygon>
							</g>
						</g>
						<g>
							<g>
								<polyline class="st31" points="43.6,122.5 87.9,96.9 87.9,122.5         "></polyline>
								<polyline class="st31" points="87.9,122.5 87.9,96.9 132.2,122.5         "></polyline>
							</g>
						</g>
					</g>
				</g>
			</g>
		</g>
	</g>
</g>
<g>
	<path class="st53" d="M74.8,74.7c-1.4,0-2.5-1.1-2.5-2.5c0-1.4,1.1-2.5,2.5-2.5c1.4,0,2.5,1.1,2.5,2.5   C77.4,73.6,76.2,74.7,74.8,74.7z"></path>
	<path class="st53" d="M23.2,74.7c-1.4,0-2.5-1.1-2.5-2.5c0-1.4,1.1-2.5,2.5-2.5s2.5,1.1,2.5,2.5C25.8,73.6,24.6,74.7,23.2,74.7z"></path>
	<circle class="st77" cx="23.2" cy="72.2" r="2.5"></circle>
	<circle class="st77" cx="74.8" cy="72.2" r="2.5"></circle>
	<polygon class="st71" points="66.7,21.9 61,21.9 57.5,28.2 63.2,28.2  "></polygon>
	<polygon class="st77" points="86.4,30.1 91.9,30.1 84,25.2 86.4,30.1  "></polygon>
	<polygon class="st77" points="95.2,48 100.3,48 91.9,30.1 86.4,30.1  "></polygon>
	<polygon class="st71" points="72.2,30.1 72.2,30.1 86.4,30.1 84,25.2 74.7,25.2  "></polygon>
	<polygon class="st77" points="76.1,21.9 82.4,21.9 79.9,17 69.4,17 66.7,21.9  "></polygon>
	<polygon class="st71" points="66.7,21.9 69.4,17 61,21.9 66.7,21.9  "></polygon>
	<polygon class="st77" points="97.7,71 97.7,72.2 102.6,72.2 102.6,53 97.7,53  "></polygon>
	<polygon class="st77" points="72.2,30.1 72.2,30.1 69,36.2  "></polygon>
	<polygon class="st77" points="74.7,25.2 66.6,30.1 72.2,30.1  "></polygon>
	<polygon class="st71" points="55.8,61.6 50.2,61.6 47.6,66.5  "></polygon>
	<polygon class="st77" points="69,36.2 72.2,30.1 66.6,30.1 50.2,61.6 50.2,61.6 54.1,54.2 50.2,61.6 55.8,61.6  "></polygon>
	<polygon class="st71" points="7.6,33.1 2.6,33.1 2.6,46.8 7.6,48.9  "></polygon>
	<polygon class="st77" points="63.2,28.2 57.5,28.2 57.5,28.2 54.8,33.1  "></polygon>
	<g>
		<path class="st77" d="M7.6,48.9v5.4l9.4,4c1.9-0.8,4-1.3,6.2-1.3c2.3,0,4.5,0.5,6.4,1.4L7.6,48.9z"></path>
		<path class="st71" d="M40.4,61.6l-6.5-0.2c0,0,2.2,1.5,3.8,5.1h10l2.6-4.9H40.4z"></path>
	</g>
	<polygon class="st77" points="102.6,72.2 97.7,72.2 97.7,77.2  "></polygon>
	<polygon class="st77" points="7.6,48.9 2.6,46.8 7.6,54.2 7.6,48.9  "></polygon>
	<path class="st71" d="M92.2,72.2h-1.7c0,0.1,0,0.3,0,0.4c0,1.6-0.2,3.1-0.7,4.6h7.9v-4.9H92.2z"></path>
	<polygon class="st71" points="7.6,28.2 2.6,33.1 7.6,33.1  "></polygon>
	<polygon class="st77" points="12.7,33.1 54.8,33.1 57.5,28.2 51.3,28.2 7.6,28.2 7.6,33.1  "></polygon>
	<path class="st77" d="M38.2,77.2c0.4-1.4,0.7-3,0.7-4.6c0-0.1,0-0.3,0-0.4h20.4c0,0.1,0,0.3,0,0.4c0,1.6,0.2,3.1,0.7,4.6H38.2z"></path>
	<polygon class="st71" points="81.1,38.9 86.9,38.9 86.9,34 79.4,34 79.4,38.9  "></polygon>
	<polygon class="st77" points="79.4,34 74.4,38.9 79.4,38.9  "></polygon>
	<polygon class="st77" points="79.4,46.4 79.4,40.3 79.4,38.9 74.4,38.9 74.4,48 79.4,48  "></polygon>
	<polygon class="st71" points="79.4,48 74.4,48 79.4,53 79.4,48  "></polygon>
	<polygon class="st71" points="79.4,53 97.7,53 95.2,48 79.4,48  "></polygon>
	<polygon class="st71" points="97.7,53 102.6,53 100.3,48 95.2,48  "></polygon>
	<polygon class="st77" points="35.8,53.3 30.1,53.3 22.2,39 27.9,39  "></polygon>
	<polygon class="st77" points="49.9,53.3 44.2,53.3 36.3,39 42,39  "></polygon>
	<path class="st77" d="M38.8,72.2h-2.6v4.9h2c0.4-1.4,0.7-3,0.7-4.6C38.9,72.5,38.9,72.4,38.8,72.2z"></path>
	<g>
		<path class="st77" d="M34.1,61.5L30.7,65c2,1.9,3.2,4.6,3.2,7.5c0.1,5.9-4.7,10.8-10.6,10.8c-3,0-5.6-1.1-7.6-3l-3.4,3.5    c1.4,1.4,3,2.5,4.9,3.2c1.9,0.8,4,1.2,6.2,1.2c6.5-0.1,12-4.1,14.3-9.7c0.7-1.8,1.1-3.7,1.1-5.7c0-0.1,0-0.3,0-0.4    c0-1.6-0.3-3.1-0.7-4.5C37.3,65.4,36,63.2,34.1,61.5z"></path>
		<path class="st71" d="M12.5,72.8c-0.1-5.9,4.7-10.8,10.6-10.8c3,0,5.6,1.1,7.6,3l3.4-3.5c-2.9-2.8-6.8-4.5-11.1-4.5    c-8.6,0.1-15.6,7.2-15.5,15.8c0.1,4.3,1.9,8.2,4.7,11l3.4-3.5C13.8,78.4,12.5,75.7,12.5,72.8z"></path>
	</g>
	<g>
		<path class="st77" d="M85.9,61.6l-3.5,3.5c1.9,1.9,3.1,4.6,3.1,7.6c0,5.9-4.8,10.7-10.7,10.7c-3,0-5.6-1.2-7.6-3.1l-3.5,3.5    c1.4,1.4,3,2.5,4.8,3.3c1.9,0.8,4,1.3,6.2,1.3c6.5,0,12-3.9,14.4-9.6C90,77,90.4,75,90.5,73c0-0.1,0-0.3,0-0.4    c0-1.6-0.2-3.1-0.7-4.6C89.1,65.6,87.7,63.4,85.9,61.6z"></path>
		<path class="st71" d="M64.1,72.6c0-5.9,4.8-10.7,10.7-10.7c3,0,5.6,1.2,7.6,3.1l3.5-3.5c-2.8-2.8-6.7-4.6-11.1-4.6    c-8.6,0-15.6,7-15.6,15.7c0,4.3,1.8,8.2,4.6,11.1l3.5-3.5C65.3,78.3,64.1,75.6,64.1,72.6z"></path>
	</g>
</g>
</svg>