<?xml version="1.0" encoding="utf-8"?>
<!-- Generator: Adobe Illustrator 21.1.0, SVG Export Plug-In . SVG Version: 6.00 Build 0)  -->
<svg version="1.1" id="Layer_1" xmlns="http://www.w3.org/2000/svg" xmlns:xlink="http://www.w3.org/1999/xlink" x="0px" y="0px"
	 viewBox="0 0 105.3 105.3" style="enable-background:new 0 0 105.3 105.3;" xml:space="preserve">
<style type="text/css">
	.st0{fill:#FFFFFF;stroke:#000000;stroke-width:0.6739;stroke-miterlimit:10;}
	.st1{fill:#FAFAFA;}
	.st2{fill:#FFFFFF;}
	.st3{fill:#2B2B2B;}
	.st4{fill:#EFEEEE;}
	.st5{fill:#FFFFFF;stroke:#000000;stroke-width:0.5;stroke-miterlimit:10;}
	.st6{fill:#FFFFFF;stroke:#231F20;stroke-width:0.25;stroke-miterlimit:10;}
	.st7{opacity:0.5;fill:url(#SVGID_7_);}
	.st8{fill:#EA1E30;}
	.st9{fill:#83161C;}
	.st10{fill:#1D1655;}
	.st11{fill:none;stroke:#231F20;stroke-width:0.5;stroke-miterlimit:10;}
	.st12{fill:#FFFFFF;stroke:#231F20;stroke-width:0.9494;stroke-miterlimit:10;}
	.st13{opacity:0.5;fill:url(#SVGID_10_);}
	.st14{fill:#FFFFFF;stroke:#221F1F;stroke-width:0.5;stroke-miterlimit:10;}
	.st15{fill:none;stroke:#EA1E30;stroke-width:4.3871;stroke-miterlimit:10;}
	.st16{fill:none;stroke:#FFFFFF;stroke-miterlimit:10;}
	.st17{fill:none;stroke:#EA1E30;stroke-miterlimit:10;}
	.st18{opacity:0.24;}
	.st19{opacity:0.2;clip-path:url(#SVGID_16_);fill:#2D241D;}
	.st20{fill:none;stroke:#EA1E30;stroke-width:3.8974;stroke-miterlimit:10;}
	.st21{fill:none;stroke:#FFFFFF;stroke-width:0.8884;stroke-miterlimit:10;}
	.st22{fill:#303187;}
	.st23{fill:none;stroke:#FFFFFF;stroke-width:1.0246;stroke-miterlimit:10;}
	.st24{opacity:0.3;fill:#FFFFFF;}
	.st25{fill:none;stroke:#FFFFFF;stroke-width:1.0901;stroke-miterlimit:10;}
	.st26{fill:#FFFFFF;stroke:#231F20;stroke-width:0.9877;stroke-miterlimit:10;}
	.st27{opacity:0.2;clip-path:url(#SVGID_20_);fill:#2D241D;}
	.st28{opacity:0.1;}
	.st29{clip-path:url(#SVGID_24_);}
	.st30{fill:#EC1B2E;}
	.st31{fill:none;stroke:#A6111F;stroke-width:1.5548;stroke-linejoin:round;stroke-miterlimit:10;}
	.st32{fill:none;stroke:#5D5D5D;stroke-miterlimit:10;}
	.st33{opacity:0.35;}
	.st34{fill:#D5D5D5;}
	.st35{fill:none;stroke:#EC1B2E;stroke-miterlimit:10;}
	.st36{fill:url(#SVGID_31_);}
	.st37{opacity:0.4;fill:url(#SVGID_32_);}
	.st38{fill:#919296;}
	.st39{fill:url(#SVGID_33_);}
	.st40{opacity:0.4;fill:url(#SVGID_34_);}
	.st41{opacity:0.4;fill:url(#SVGID_35_);}
	.st42{fill:#F2F2F2;}
	.st43{fill:none;stroke:#FFFFFF;stroke-width:1.3023;stroke-miterlimit:10;}
	.st44{fill:#A9A9A9;}
	.st45{fill:none;stroke:#A9A9A9;stroke-miterlimit:10;}
	.st46{fill:#D9D9D9;}
	.st47{fill:none;stroke:#000000;stroke-width:1.3023;stroke-miterlimit:10;}
	.st48{fill:#C2C2C2;}
	.st49{fill:none;stroke:#B3B3B3;stroke-miterlimit:10;}
	.st50{opacity:0.15;}
	.st51{fill:#F4F4F4;}
	.st52{fill:#E6E6E6;}
	.st53{fill:none;}
	.st54{fill:none;stroke:#FFFFFF;stroke-width:2;stroke-miterlimit:10;}
	.st55{fill:#FFFFFF;stroke:#A9A9A9;stroke-miterlimit:10;}
	.st56{clip-path:url(#SVGID_51_);}
	.st57{fill:none;stroke:#D9D9D9;stroke-width:1.0402;stroke-linejoin:round;stroke-miterlimit:10;}
	.st58{fill:#F1F1F1;}
	.st59{fill:#EBECEE;}
	.st60{fill:#434655;}
	.st61{clip-path:url(#SVGID_53_);}
	.st62{clip-path:url(#SVGID_55_);}
	.st63{fill:#E82031;stroke:#EC1B2E;stroke-width:2.4045;stroke-linejoin:round;stroke-miterlimit:10;}
	.st64{clip-path:url(#SVGID_55_);fill:#E82031;stroke:#EC1B2E;stroke-width:2.4045;stroke-linejoin:round;stroke-miterlimit:10;}
	.st65{fill:#FFFFFF;stroke:#EC1B2E;stroke-width:2.4045;stroke-linejoin:round;stroke-miterlimit:10;}
	.st66{clip-path:url(#SVGID_55_);fill:#FFFFFF;stroke:#EC1B2E;stroke-width:2.4045;stroke-linejoin:round;stroke-miterlimit:10;}
	.st67{fill:none;stroke:#EC1B2E;stroke-width:2.4045;stroke-linejoin:round;stroke-miterlimit:10;}
	.st68{clip-path:url(#SVGID_55_);fill:none;stroke:#EC1B2E;stroke-width:2.4045;stroke-linejoin:round;stroke-miterlimit:10;}
	.st69{clip-path:url(#SVGID_55_);fill:none;stroke:#EC1B2E;stroke-width:2.404;stroke-linejoin:round;stroke-miterlimit:10;}
	.st70{clip-path:url(#SVGID_57_);}
	.st71{fill:#840F1A;}
	.st72{fill:#929497;}
	.st73{fill:none;stroke:#231F20;stroke-width:1.0556;stroke-linecap:round;stroke-linejoin:round;stroke-miterlimit:10;}
	.st74{clip-path:url(#SVGID_59_);}
	.st75{fill:#424554;}
	.st76{clip-path:url(#SVGID_61_);}
	.st77{fill:#EC1D30;}
</style>
<g>
	<g>
		<defs>
			<rect id="SVGID_23_" x="434.4" y="-764.4" width="1920" height="545.5"/>
		</defs>
		<clipPath id="SVGID_2_">
			<use xlink:href="#SVGID_23_"  style="overflow:visible;"/>
		</clipPath>
		<g style="clip-path:url(#SVGID_2_);">
			<g>
				<g>
					<g>
						<g>
							<g>
								<polygon class="st31" points="64.8,-82.2 64.8,20.1 20.4,-5.5 20.4,-56.6 -23.9,-82.2 -23.9,-133.4 20.4,-107.8 								"/>
							</g>
						</g>
						<g>
							<g>
								<polygon class="st31" points="153.4,20.1 153.4,71.3 109.1,45.7 64.8,20.1 64.8,-82.2 109.1,-56.6 109.1,-5.5 								"/>
							</g>
							<g>
								<polyline class="st31" points="-23.9,-31.1 20.4,-56.6 20.4,-5.5 -23.9,20.1 								"/>
							</g>
						</g>
						<g>
							<g>
								<polygon class="st31" points="64.8,71.3 64.8,71.3 64.8,71.3 								"/>
								<polyline class="st31" points="64.8,122.5 20.4,96.9 20.4,45.7 64.8,71.3 109.1,96.9 109.1,122.5 								"/>
							</g>
							<g>
								<polygon class="st31" points="153.4,71.3 109.1,96.9 64.8,71.3 20.4,45.7 64.8,20.1 109.1,45.7 								"/>
							</g>
							<g>
								<polyline class="st31" points="-23.9,20.1 20.4,-5.5 64.8,20.1 20.4,45.7 -23.9,71.3 								"/>
								<polygon class="st31" points="20.4,45.7 20.4,45.7 20.4,45.7 								"/>
								<polygon class="st31" points="20.4,45.7 20.4,96.9 -23.9,122.5 -23.9,71.3 								"/>
							</g>
						</g>
						<g>
							<g>
								<polyline class="st31" points="-23.9,122.5 20.4,96.9 64.8,122.5 								"/>
							</g>
						</g>
					</g>
				</g>
			</g>
		</g>
	</g>
</g>
<g>
	<g>
		<path class="st77" d="M55.9,23.7c-5.8,0-10.5-4.7-10.5-10.5c0-5.8,4.7-10.5,10.5-10.5s10.5,4.7,10.5,10.5
			C66.4,18.9,61.7,23.7,55.9,23.7z M55.9,7.6c-3,0-5.5,2.5-5.5,5.5s2.5,5.5,5.5,5.5c3,0,5.5-2.5,5.5-5.5S58.9,7.6,55.9,7.6z"/>
	</g>
	<g>
		<polygon class="st53" points="41.3,26.6 41.2,26.7 41.3,26.6 		"/>
		<polygon class="st53" points="36.9,76.1 38.5,73.5 38.5,73.5 		"/>
		<polygon class="st53" points="8.4,46.2 8.4,46.2 9.1,45.8 		"/>
		<polygon class="st77" points="63.2,34.8 55.1,26.5 57.2,32.6 		"/>
		<polygon class="st77" points="8.4,46.2 8.4,46.2 13.7,47.8 13.7,47.8 		"/>
		<polygon class="st77" points="8.4,46.2 8.4,46.2 9.1,45.8 16.6,41.3 9.1,45.8 41.2,26.7 40.7,27 41.2,26.7 41.3,26.6 41.3,26.6 
			41.3,26.6 35.2,24.4 1.9,44.3 8.4,46.2 		"/>
		<polygon class="st77" points="46.8,23.4 35.2,24.4 41.3,26.6 		"/>
		<polygon class="st71" points="44.6,27.9 41.3,26.6 41.3,26.6 54.9,31.7 57.2,32.6 55.1,26.5 46.8,23.4 41.3,26.6 		"/>
		<polygon class="st71" points="43.1,76.1 45.5,71.6 41.1,69.2 38.5,73.5 		"/>
		<polygon class="st71" points="47.5,78.5 45.5,71.6 43.1,76.1 		"/>
		<polygon class="st77" points="38.5,73.5 38.5,73.5 43.1,76.1 42,78.2 43.1,76.1 		"/>
		<polygon class="st77" points="47.5,78.5 43.1,76.1 42,78.2 31.9,97.3 37.6,97.3 		"/>
		<polygon class="st77" points="34.1,71.1 18.4,97.3 24.2,97.3 36.9,76.1 34,81.1 36.9,76.1 38.5,73.5 38.5,73.5 38.5,73.5 		"/>
		<polygon class="st77" points="37.6,97.3 31.9,97.3 34.9,102.3 37.6,97.3 		"/>
		<polyline class="st77" points="56.9,74.9 43.8,97.3 43.8,97.3 49,88.3 43.8,97.3 49.6,97.3 59.5,80.3 56.9,74.9 50.8,85.3 
			56.9,74.9 		"/>
		<polygon class="st77" points="41.1,69.2 34.1,71.1 38.5,73.5 		"/>
		<polygon class="st77" points="7.4,97.3 10.7,102.3 12.9,97.3 		"/>
		<polygon class="st71" points="12.9,97.3 12.9,97.3 10.7,102.3 15.4,102.3 18.4,97.3 		"/>
		<polygon class="st71" points="43.8,97.3 37.6,97.3 34.9,102.3 40.8,102.3 43.8,97.3 		"/>
		<polygon class="st71" points="40.8,102.3 49.6,97.3 43.8,97.3 		"/>
		<polygon class="st77" points="28.3,62.2 12.9,97.3 7.4,97.3 23.5,60.8 		"/>
		<polygon class="st71" points="18.4,97.3 15.4,102.3 24.2,97.3 18.4,97.3 		"/>
		<polygon class="st77" points="59.5,80.3 59.9,69.8 56.9,74.9 		"/>
		<polygon class="st77" points="19.5,49.6 20.9,50 20.9,50 		"/>
		<g>
			<polygon class="st71" points="12.6,47.7 19.8,49.9 25.3,47.4 28.6,45.9 31.3,39.1 			"/>
			<polygon class="st77" points="28.6,45.9 27.2,49.3 26,52.1 30.8,53.9 35.2,42.8 			"/>
			<polygon class="st77" points="31.3,39.1 28.6,45.9 35.2,42.8 			"/>
		</g>
		<polygon class="st77" points="13.7,47.8 13.7,47.8 19.5,49.6 		"/>
		<g>
			<polygon class="st77" points="43.5,56.7 48.5,58.2 52,52.4 49.4,47 			"/>
			<polygon class="st71" points="62.3,62.4 55,47.3 53.1,50.4 52,52.4 55.9,60.5 			"/>
			<polygon class="st71" points="55,47.3 49.4,47 52,52.4 53.1,50.4 			"/>
		</g>
	</g>
	<polygon class="st71" points="1.9,44.3 2.6,49.7 8.4,46.2 	"/>
	<polyline class="st71" points="56.9,74.9 59.9,69.8 58.2,66.4 51.7,64.4 56.9,74.9 	"/>
	<polyline class="st77" points="56.9,74.9 53.6,68.4 56.9,74.9 	"/>
	<g>
		<polygon class="st71" points="86.4,69.1 80.6,69.1 83.5,74 		"/>
	</g>
	<g>
		<polygon class="st77" points="69.4,97.6 69.5,97.6 72.5,92.5 		"/>
		<polygon class="st77" points="83.5,74 97.5,97.6 97.5,97.6 95.4,94.1 97.5,97.6 103.3,97.6 86.4,69.1 83.5,74 91.2,87 83.5,74 
			80.3,79.3 		"/>
		<polygon class="st77" points="97.5,97.6 74,97.6 71,102.6 100.5,102.6 97.5,97.6 		"/>
		<polygon class="st71" points="72.5,92.5 80.3,79.3 83.5,74 80.6,69.1 78.4,72.7 63.6,97.6 69.4,97.6 		"/>
		<polygon class="st71" points="103.3,97.6 97.5,97.6 100.5,102.6 		"/>
		<polygon class="st71" points="63.6,97.6 66.5,102.6 69.4,97.6 		"/>
	</g>
	<g>
		<polygon class="st77" points="63.2,34.8 57.2,32.6 60.3,41.7 57.2,32.6 57.2,32.6 67.9,64 73.8,65.8 		"/>
		<polygon class="st77" points="73.8,65.8 67.9,64 62.7,62.5 56.2,60.5 48.6,58.3 43.7,56.8 31.3,53.1 26.5,51.6 20.9,50 19.5,49.6 
			13.7,47.8 8.4,46.2 2.6,49.7 51.7,64.4 58.2,66.4 61.3,67.3 75.7,71.6 78.3,67.2 		"/>
	</g>
</g>
</svg>
